<svg width="1024" height="1024" viewBox="0 0 1024 1024" fill="none" xmlns="http://www.w3.org/2000/svg">
<rect width="1024" height="1024" rx="8" fill="#D9D9D9"/>
<g clip-path="url(#clip0_1_6)">
<path d="M512 128C300.032 128 128 300.032 128 512C128 723.968 300.032 896 512 896C723.968 896 896 723.968 896 512C896 300.032 723.968 128 512 128ZM204.8 512C204.8 488.576 207.872 465.536 212.864 443.648L396.416 627.2V665.6C396.416 707.84 430.976 742.4 473.216 742.4V816.512C322.304 797.312 204.8 668.288 204.8 512ZM738.176 719.36C728.192 688.256 699.776 665.6 665.216 665.6H626.816V550.4C626.816 529.28 609.536 512 588.416 512H358.016V435.2H434.816C455.936 435.2 473.216 417.92 473.216 396.8V320H550.016C592.256 320 626.816 285.44 626.816 243.2V227.456C739.328 272.768 819.2 383.36 819.2 512C819.2 591.872 788.096 664.832 738.176 719.36Z" fill="black"/>
</g>
<defs>
<clipPath id="clip0_1_6">
<rect width="768" height="768" fill="white" transform="translate(128 128)"/>
</clipPath>
</defs>
</svg>
